<?xml version="1.0" encoding="UTF-8" standalone="no"?>
<!DOCTYPE svg PUBLIC "-//W3C//DTD SVG 1.1//EN" "http://www.w3.org/Graphics/SVG/1.1/DTD/svg11.dtd">
<svg width="100%" height="100%" viewBox="0 0 896 542" version="1.1" xmlns="http://www.w3.org/2000/svg" xmlns:xlink="http://www.w3.org/1999/xlink" xml:space="preserve" xmlns:serif="http://www.serif.com/" style="fill-rule:evenodd;clip-rule:evenodd;stroke-linejoin:round;stroke-miterlimit:2;">
    <g transform="matrix(4.16667,0,0,4.16667,0,0)">
        <path d="M94.504,73.108L87.822,73.108L82.921,81.596L77.998,73.108L71.221,73.108L79.518,87.478L77.389,91.165L80.736,96.974L94.504,73.108Z" style="fill:rgb(3,47,60);fill-rule:nonzero;"/>
        <path d="M99.09,82.331C99.09,84.4 100.486,85.82 102.484,85.82C104.482,85.82 105.877,84.4 105.877,82.331C105.877,80.405 104.578,78.792 102.484,78.792C100.389,78.792 99.09,80.405 99.09,82.331ZM112.52,82.235C112.52,88.06 108.021,91.549 102.484,91.549C96.948,91.549 92.447,88.06 92.447,82.235C92.447,76.531 96.973,72.824 102.484,72.824C107.995,72.824 112.52,76.531 112.52,82.235Z" style="fill:rgb(3,47,60);fill-rule:nonzero;"/>
        <path d="M130.853,73.113L130.853,83.847C130.853,89.142 127.532,91.549 122.452,91.549C117.374,91.549 114.053,89.142 114.053,83.847L114.053,73.113L120.648,73.113L120.648,83.221C120.648,84.642 120.695,85.893 122.452,85.893C124.21,85.893 124.258,84.642 124.258,83.221L124.258,73.113L130.853,73.113Z" style="fill:rgb(3,47,60);fill-rule:nonzero;"/>
        <path d="M172.666,80.574C172.618,83.534 172.618,86.014 170.473,88.324C168.55,90.419 165.588,91.55 162.772,91.55C157.238,91.55 152.759,88.131 152.759,82.308C152.759,76.386 157.117,72.824 162.822,72.824C165.974,72.824 170.307,74.389 171.726,77.494L165.565,79.755C165.059,78.84 164.121,78.36 163.062,78.36C160.703,78.36 159.404,80.382 159.404,82.572C159.404,84.569 160.655,86.447 162.796,86.447C163.832,86.447 165.156,85.965 165.469,84.858L162.484,84.858L162.484,80.574L172.666,80.574Z" style="fill:rgb(3,47,60);fill-rule:nonzero;"/>
        <path d="M144.672,73.113L144.672,74.678L144.671,74.678L144.671,82.557L139.114,73.113L132.784,73.113L132.784,91.26L139.089,91.26L139.089,82.084L144.672,91.26L150.979,91.26L150.979,73.113L144.672,73.113Z" style="fill:rgb(3,47,60);fill-rule:nonzero;"/>
        <path d="M187.013,93.501C187.013,94.557 186.153,95.383 185.129,95.383C184.105,95.383 183.245,94.557 183.245,93.501C183.245,92.477 184.105,91.617 185.129,91.617C186.153,91.617 187.013,92.477 187.013,93.501Z" style="fill:rgb(245,130,31);fill-rule:nonzero;"/>
        <path d="M104.575,102.667C104.212,100.42 102.328,98.604 100.015,98.604C97.736,98.604 95.621,100.42 95.291,102.667L104.575,102.667ZM95.16,104.914C95.193,107.787 97.241,110.099 100.247,110.099C102.494,110.099 103.948,108.744 104.971,106.896L107.218,108.184C105.731,110.96 103.221,112.544 100.048,112.544C95.424,112.544 92.45,109.01 92.45,104.55C92.45,99.957 95.126,96.158 99.982,96.158C104.971,96.158 107.614,100.289 107.349,104.914L95.16,104.914Z" style="fill:rgb(245,130,31);fill-rule:nonzero;"/>
        <path d="M112.36,98.472L112.427,98.472C113.517,96.984 114.937,96.159 116.854,96.159C121.148,96.159 122.139,99.264 122.139,102.898L122.139,112.116L119.496,112.116L119.496,103.362C119.496,100.849 119.299,98.604 116.226,98.604C112.592,98.604 112.36,101.973 112.36,104.748L112.36,112.116L109.718,112.116L109.718,96.589L112.36,96.589L112.36,98.472Z" style="fill:rgb(245,130,31);fill-rule:nonzero;"/>
        <path d="M127.458,112.116L124.815,112.116L124.815,99.032L123.196,99.032L123.196,96.588L124.815,96.588L124.815,93.5L127.458,93.5L127.458,96.588L130.233,96.588L130.233,99.032L127.458,99.032L127.458,112.116Z" style="fill:rgb(245,130,31);fill-rule:nonzero;"/>
        <path d="M142.249,102.667C141.886,100.42 140.003,98.604 137.691,98.604C135.411,98.604 133.297,100.42 132.965,102.667L142.249,102.667ZM132.834,104.914C132.867,107.787 134.915,110.099 137.921,110.099C140.167,110.099 141.622,108.744 142.646,106.896L144.892,108.184C143.405,110.96 140.894,112.544 137.724,112.544C133.099,112.544 130.125,109.01 130.125,104.55C130.125,99.957 132.802,96.158 137.657,96.158C142.646,96.158 145.289,100.289 145.024,104.914L132.834,104.914Z" style="fill:rgb(245,130,31);fill-rule:nonzero;"/>
        <path d="M149.41,98.273L149.477,98.273C150.403,97.05 151.196,96.159 152.914,96.159C153.805,96.159 154.532,96.456 155.291,96.886L154.036,99.297C153.507,98.933 153.144,98.603 152.451,98.603C149.543,98.603 149.41,102.337 149.41,104.352L149.41,112.116L146.768,112.116L146.768,96.588L149.41,96.588L149.41,98.273Z" style="fill:rgb(245,130,31);fill-rule:nonzero;"/>
        <path d="M159.08,104.187C159.08,107.227 160.864,110.099 164.169,110.099C167.571,110.099 169.355,107.359 169.355,104.221C169.355,101.115 167.406,98.604 164.134,98.604C161.063,98.604 159.08,101.28 159.08,104.187ZM159.213,98.802L159.279,98.802C160.567,97.084 162.484,96.159 164.631,96.159C169.189,96.159 172.064,100.09 172.064,104.386C172.064,108.811 169.256,112.544 164.597,112.544C162.484,112.544 160.535,111.62 159.279,109.935L159.213,109.935L159.213,117.392L156.57,117.392L156.57,96.589L159.213,96.589L159.213,98.802Z" style="fill:rgb(245,130,31);fill-rule:nonzero;"/>
        <path d="M176.516,98.273L176.582,98.273C177.508,97.05 178.299,96.159 180.018,96.159C180.91,96.159 181.638,96.456 182.396,96.886L181.141,99.297C180.614,98.933 180.25,98.603 179.556,98.603C176.649,98.603 176.516,102.338 176.516,104.352L176.516,112.116L173.873,112.116L173.873,96.588L176.516,96.588L176.516,98.273Z" style="fill:rgb(245,130,31);fill-rule:nonzero;"/>
        <rect x="183.808" y="96.588" width="2.642" height="15.528" style="fill:rgb(245,130,31);fill-rule:nonzero;"/>
        <path d="M195.66,100.189C195.298,99.362 194.504,98.603 193.547,98.603C192.62,98.603 191.629,99.33 191.629,100.321C191.629,101.742 193.414,102.27 195.23,103.03C197.047,103.79 198.831,104.881 198.831,107.492C198.831,110.431 196.453,112.545 193.579,112.545C190.969,112.545 188.921,111.058 188.096,108.614L190.44,107.623C191.1,109.076 191.86,110.1 193.612,110.1C195.032,110.1 196.123,109.141 196.123,107.722C196.123,104.254 189.12,105.443 189.12,100.553C189.12,97.943 191.232,96.159 193.744,96.159C195.528,96.159 197.18,97.414 197.874,99.032L195.66,100.189Z" style="fill:rgb(245,130,31);fill-rule:nonzero;"/>
        <path d="M212.202,102.667C211.839,100.42 209.954,98.604 207.642,98.604C205.364,98.604 203.249,100.42 202.919,102.667L212.202,102.667ZM202.788,104.914C202.82,107.787 204.868,110.099 207.873,110.099C210.12,110.099 211.576,108.744 212.599,106.896L214.845,108.184C213.358,110.96 210.848,112.544 207.676,112.544C203.051,112.544 200.077,109.01 200.077,104.55C200.077,99.957 202.754,96.158 207.61,96.158C212.599,96.158 215.241,100.289 214.976,104.914L202.788,104.914Z" style="fill:rgb(245,130,31);fill-rule:nonzero;"/>
        <path d="M19.734,110.708L19.734,105.93L22.493,105.93L22.493,101.151L25.251,101.151L21.156,94.059L8.786,115.487L16.974,115.487L16.974,110.708L19.734,110.708Z" style="fill:rgb(3,47,60);fill-rule:nonzero;"/>
        <path d="M25.251,101.151L22.493,105.929L19.733,110.708L16.974,115.487L33.529,115.487L25.251,101.151Z" style="fill:rgb(3,47,60);fill-rule:nonzero;"/>
        <path d="M92.032,45.63C89.947,45.892 87.814,45.591 85.881,44.767C84.293,44.092 82.858,43.083 81.644,41.86C81.022,41.234 80.457,40.552 79.953,39.828C79.42,39.063 78.998,38.252 78.569,37.428C77.835,38.705 70.384,51.77 70.143,52.091C71.719,53.681 73.539,55.059 75.438,56.24C77.53,57.54 79.786,58.572 82.137,59.303C87.001,60.814 92.232,61.11 97.216,60.033C100.414,59.342 103.182,58.198 106.216,56.335L98.413,42.821C96.608,44.289 94.348,45.338 92.032,45.63Z" style="fill:rgb(245,130,31);fill-rule:nonzero;"/>
        <path d="M121.349,28.977C121.349,28.301 121.259,27.613 121.18,26.941C121.1,26.262 120.996,25.587 120.876,24.913C120.656,23.688 120.339,22.475 119.963,21.288C119.223,18.952 118.179,16.719 116.893,14.633C114.764,11.179 111.936,8.165 108.625,5.819C105.264,3.437 101.417,1.758 97.383,0.918C93.307,0.07 89.053,0.072 84.977,0.925C81.158,1.724 77.507,3.277 74.278,5.466C71.098,7.621 68.338,10.383 66.183,13.561C64.117,16.609 62.612,20.059 61.779,23.646L79.109,23.646C80.718,19.937 83.786,16.772 87.705,15.574C91.445,14.432 95.611,15.213 98.701,17.598C100.717,19.153 102.218,21.3 103.174,23.646L86.553,23.646L78.671,37.282L120.623,37.282C121.247,34.578 121.524,31.75 121.349,28.977Z" style="fill:rgb(245,130,31);fill-rule:nonzero;"/>
        <path d="M70.002,52.297L35.514,112.24L23.104,90.757L30.971,77.1L0,23.646L25.11,23.646L43.531,55.305L61.626,23.886C61.113,26.075 60.852,28.358 60.855,30.704C60.864,39.175 64.366,46.831 70.002,52.297Z" style="fill:rgb(3,47,60);fill-rule:nonzero;"/>
        <path d="M10.365,127.286L9.671,125.047C9.643,124.942 9.568,124.639 9.444,124.136C9.321,124.639 9.235,124.942 9.206,125.047L8.523,127.286L10.365,127.286ZM8.277,123.035L10.592,123.035L12.937,129.819L11.095,129.819L10.753,128.605L8.124,128.605L7.774,129.819L5.932,129.819L8.277,123.035Z" style="fill:rgb(3,47,60);fill-rule:nonzero;"/>
        <path d="M22.796,129.819L22.398,126.888C22.341,126.479 22.293,125.976 22.255,125.369C22.161,125.967 22.018,126.375 21.943,126.64L21.022,129.819L19.787,129.819L18.868,126.64C18.791,126.375 18.649,125.967 18.554,125.369C18.516,125.976 18.459,126.479 18.402,126.888L18.003,129.819L16.285,129.819L17.329,123.035L19.161,123.035L20.187,126.536C20.253,126.755 20.348,127.049 20.405,127.457C20.452,127.077 20.537,126.773 20.614,126.527L21.648,123.035L23.48,123.035L24.524,129.819L22.796,129.819Z" style="fill:rgb(3,47,60);fill-rule:nonzero;"/>
        <path d="M27.985,125.995C27.453,125.995 27.121,126.29 27.027,126.878L28.924,126.878C28.868,126.337 28.479,125.995 27.985,125.995ZM26.989,127.808C26.997,128.539 27.377,128.937 28.042,128.937C28.545,128.937 28.886,128.748 29.067,128.377L30.31,128.881C30.016,129.582 29.247,130 28.137,130C26.428,130 25.432,128.946 25.432,127.533C25.432,126.119 26.486,124.989 28.042,124.989C29.561,124.989 30.547,126.014 30.547,127.732L30.547,127.808L26.989,127.808Z" style="fill:rgb(3,47,60);fill-rule:nonzero;"/>
        <path d="M37.869,127.267C37.869,126.527 37.737,126.194 37.196,126.194C36.427,126.194 36.37,126.811 36.37,127.837L36.37,129.819L34.776,129.819L34.776,127.267C34.776,126.546 34.661,126.194 34.112,126.194C33.333,126.194 33.276,126.821 33.276,127.837L33.276,129.819L31.672,129.819L31.672,125.141L33.295,125.141L33.295,125.957C33.694,125.293 34.178,124.989 34.87,124.989C35.63,124.989 36.114,125.284 36.323,125.872C36.702,125.274 37.215,124.989 37.917,124.989C38.477,124.989 38.905,125.18 39.189,125.558C39.484,125.957 39.502,126.413 39.502,126.954L39.502,129.819L37.869,129.819L37.869,127.267Z" style="fill:rgb(3,47,60);fill-rule:nonzero;"/>
        <path d="M43.434,128.662C44.098,128.662 44.516,128.217 44.516,127.485C44.516,126.764 44.098,126.308 43.434,126.308C42.769,126.308 42.361,126.764 42.361,127.485C42.361,128.217 42.76,128.662 43.434,128.662ZM42.475,122.636L42.475,125.085C42.475,125.369 42.465,125.653 42.427,125.92C42.845,125.218 43.282,124.989 44.06,124.989C45.285,124.989 46.158,125.967 46.158,127.485C46.158,129.052 45.294,130 44.003,130C43.358,130 42.835,129.687 42.418,129.06L42.418,129.819L40.9,129.819L40.9,122.636L42.475,122.636Z" style="fill:rgb(3,47,60);fill-rule:nonzero;"/>
        <path d="M49.65,125.995C49.119,125.995 48.786,126.29 48.692,126.878L50.589,126.878C50.533,126.337 50.144,125.995 49.65,125.995ZM48.654,127.808C48.662,128.539 49.042,128.937 49.707,128.937C50.21,128.937 50.552,128.748 50.732,128.377L51.975,128.881C51.681,129.582 50.912,130 49.802,130C48.093,130 47.097,128.946 47.097,127.533C47.097,126.119 48.151,124.989 49.707,124.989C51.226,124.989 52.212,126.014 52.212,127.732L52.212,127.808L48.654,127.808Z" style="fill:rgb(3,47,60);fill-rule:nonzero;"/>
        <path d="M53.342,125.141L54.899,125.141L54.899,126.242C55.202,125.464 55.781,125.037 56.502,125.037C56.617,125.037 56.768,125.047 56.967,125.065L56.806,126.564C56.607,126.508 56.426,126.47 56.237,126.47C55.458,126.47 54.984,126.944 54.984,127.884L54.984,129.819L53.342,129.819L53.342,125.141Z" style="fill:rgb(3,47,60);fill-rule:nonzero;"/>
        <path d="M63.08,126.365C62.473,126.365 62.103,126.802 62.103,127.495C62.103,128.187 62.473,128.614 63.08,128.614C63.688,128.614 64.058,128.187 64.058,127.495C64.058,126.802 63.688,126.365 63.08,126.365ZM63.08,130C61.59,130 60.47,128.871 60.47,127.495C60.47,126.109 61.599,124.989 63.08,124.989C64.561,124.989 65.7,126.109 65.7,127.495C65.7,128.881 64.561,130 63.08,130Z" style="fill:rgb(3,47,60);fill-rule:nonzero;"/>
        <path d="M67.012,126.308L66.31,126.308L66.31,125.141L67.012,125.141L67.012,124.182C67.012,123.092 67.611,122.541 68.787,122.541C68.958,122.541 69.186,122.57 69.461,122.626L69.461,123.889C69.309,123.832 69.176,123.804 69.081,123.804C68.749,123.804 68.635,124.003 68.635,124.391L68.635,125.141L69.461,125.141L69.461,126.308L68.635,126.308L68.635,129.819L67.012,129.819L67.012,126.308Z" style="fill:rgb(3,47,60);fill-rule:nonzero;"/>
        <path d="M76.635,123.035L76.635,127.429C76.635,128.055 76.607,128.586 76.341,129.052C75.999,129.659 75.392,130 74.614,130C73.769,130 73.095,129.638 72.62,128.918L73.75,127.893C73.807,128.302 74.026,128.519 74.329,128.519C74.785,128.519 74.794,127.913 74.794,126.764L74.794,123.035L76.635,123.035Z" style="fill:rgb(3,47,60);fill-rule:nonzero;"/>
        <path d="M81.827,127.286L81.134,125.047C81.106,124.942 81.031,124.639 80.907,124.136C80.784,124.639 80.698,124.942 80.669,125.047L79.986,127.286L81.827,127.286ZM79.74,123.035L82.055,123.035L84.4,129.819L82.558,129.819L82.216,128.605L79.587,128.605L79.237,129.819L77.395,129.819L79.74,123.035Z" style="fill:rgb(3,47,60);fill-rule:nonzero;"/>
        <path d="M93.68,126.261C93.842,126.868 93.889,127.21 93.899,127.258C93.984,126.831 94.05,126.498 94.108,126.261L94.905,123.035L96.775,123.035L94.857,129.819L93.139,129.819L92.304,126.926C92.257,126.755 92.181,126.451 92.077,126.014C91.991,126.365 91.924,126.669 91.849,126.926L91.023,129.819L89.305,129.819L87.388,123.035L89.257,123.035L90.036,126.28C90.121,126.622 90.188,126.964 90.244,127.296C90.311,126.944 90.397,126.602 90.482,126.28L91.336,123.035L92.827,123.035L93.68,126.261Z" style="fill:rgb(3,47,60);fill-rule:nonzero;"/>
        <path d="M99.647,126.365C99.039,126.365 98.669,126.802 98.669,127.495C98.669,128.187 99.039,128.614 99.647,128.614C100.255,128.614 100.625,128.187 100.625,127.495C100.625,126.802 100.255,126.365 99.647,126.365ZM99.647,130C98.157,130 97.036,128.871 97.036,127.495C97.036,126.109 98.165,124.989 99.647,124.989C101.128,124.989 102.266,126.109 102.266,127.495C102.266,128.881 101.128,130 99.647,130Z" style="fill:rgb(3,47,60);fill-rule:nonzero;"/>
        <path d="M103.412,125.141L104.969,125.141L104.969,126.242C105.272,125.464 105.85,125.037 106.572,125.037C106.686,125.037 106.838,125.047 107.037,125.065L106.876,126.564C106.677,126.508 106.496,126.47 106.306,126.47C105.528,126.47 105.054,126.944 105.054,127.884L105.054,129.819L103.412,129.819L103.412,125.141Z" style="fill:rgb(3,47,60);fill-rule:nonzero;"/>
        <rect x="107.891" y="122.636" width="1.652" height="7.183" style="fill:rgb(3,47,60);fill-rule:nonzero;"/>
        <path d="M113.485,126.308C112.821,126.308 112.413,126.764 112.413,127.485C112.413,128.217 112.821,128.662 113.485,128.662C114.159,128.662 114.567,128.217 114.567,127.485C114.567,126.764 114.149,126.308 113.485,126.308ZM116.029,129.819L114.511,129.819L114.511,129.06C114.093,129.687 113.57,130 112.926,130C111.635,130 110.77,129.052 110.77,127.485C110.77,125.967 111.644,124.989 112.868,124.989C113.638,124.989 114.083,125.218 114.501,125.92C114.463,125.653 114.444,125.369 114.444,125.085L114.444,122.636L116.029,122.636L116.029,129.819Z" style="fill:rgb(3,47,60);fill-rule:nonzero;"/>
        <path d="M121.964,127.21C122.03,127.4 122.115,127.646 122.173,127.941C122.22,127.646 122.305,127.409 122.372,127.21L123.074,125.141L124.782,125.141L122.817,129.819L121.65,129.819L120.958,127.704C120.9,127.543 120.844,127.296 120.777,126.972C120.711,127.296 120.644,127.543 120.588,127.704L119.894,129.819L118.727,129.819L116.772,125.141L118.471,125.141L119.173,127.21C119.24,127.4 119.315,127.646 119.373,127.941C119.42,127.646 119.514,127.409 119.581,127.21L120.274,125.141L121.27,125.141L121.964,127.21Z" style="fill:rgb(3,47,60);fill-rule:nonzero;"/>
        <path d="M125.541,125.141L127.192,125.141L127.192,129.819L125.541,129.819L125.541,125.141ZM126.366,122.769C126.869,122.769 127.277,123.167 127.277,123.68C127.277,124.192 126.859,124.6 126.366,124.6C125.853,124.6 125.455,124.164 125.455,123.68C125.455,123.186 125.863,122.769 126.366,122.769Z" style="fill:rgb(3,47,60);fill-rule:nonzero;"/>
        <path d="M131.109,126.308C130.445,126.308 130.037,126.764 130.037,127.485C130.037,128.217 130.445,128.662 131.109,128.662C131.783,128.662 132.191,128.217 132.191,127.485C132.191,126.764 131.773,126.308 131.109,126.308ZM133.653,129.819L132.135,129.819L132.135,129.06C131.717,129.687 131.195,130 130.55,130C129.259,130 128.394,129.052 128.394,127.485C128.394,125.967 129.268,124.989 130.492,124.989C131.262,124.989 131.707,125.218 132.125,125.92C132.087,125.653 132.068,125.369 132.068,125.085L132.068,122.636L133.653,122.636L133.653,129.819Z" style="fill:rgb(3,47,60);fill-rule:nonzero;"/>
        <path d="M137.367,125.995C136.836,125.995 136.504,126.29 136.409,126.878L138.306,126.878C138.25,126.337 137.861,125.995 137.367,125.995ZM136.371,127.808C136.38,128.539 136.76,128.937 137.425,128.937C137.928,128.937 138.269,128.748 138.449,128.377L139.692,128.881C139.398,129.582 138.63,130 137.519,130C135.81,130 134.814,128.946 134.814,127.533C134.814,126.119 135.868,124.989 137.425,124.989C138.943,124.989 139.93,126.014 139.93,127.732L139.93,127.808L136.371,127.808Z" style="fill:rgb(3,47,60);fill-rule:nonzero;"/>
    </g>
</svg>
